<?xml version="1.0" standalone="no"?>
<!DOCTYPE svg PUBLIC "-//W3C//DTD SVG 20010904//EN"
 "http://www.w3.org/TR/2001/REC-SVG-20010904/DTD/svg10.dtd">
<svg version="1.0" xmlns="http://www.w3.org/2000/svg"
 width="543.000000pt" height="543.000000pt" viewBox="0 0 543.000000 543.000000"
 preserveAspectRatio="xMidYMid meet">

<g transform="translate(0.000000,543.000000) scale(0.100000,-0.100000)"
fill="#000000" stroke="none">
<path d="M680 3055 l0 -2035 2033 2 2032 3 0 2030 0 2030 -1525 0 -1525 0 0
-160 0 -160 1345 -2 c1250 -3 1346 -4 1358 -20 18 -25 18 -3383 0 -3384 -7 0
-276 0 -598 0 -322 1 -591 1 -597 1 -10 0 -13 146 -13 695 l0 695 -167 -2
-168 -3 -3 -692 -2 -693 -48 0 c-26 -1 -425 -1 -887 0 -462 0 -852 0 -867 0
l-28 0 0 1694 c0 1535 1 1694 16 1700 9 3 81 6 160 6 l144 0 -2 163 -3 162
-327 3 -328 2 0 -2035z"/>
<path d="M805 776 c-117 -53 -144 -215 -52 -311 48 -49 100 -63 163 -46 33 9
40 8 56 -9 19 -20 78 -28 78 -11 0 4 -10 21 -22 36 -19 25 -20 31 -9 59 25 60
31 105 22 146 -26 115 -138 180 -236 136z m123 -72 c44 -31 67 -116 42 -154
-9 -13 -12 -13 -24 3 -10 13 -25 17 -50 15 l-36 -3 24 -36 c14 -20 22 -39 19
-43 -11 -11 -53 -6 -83 9 -102 53 -64 225 50 225 20 0 46 -7 58 -16z"/>
<path d="M1262 782 c-9 -3 -12 -42 -12 -140 0 -163 12 -198 74 -221 33 -13 44
-13 79 0 65 23 77 57 77 221 l0 138 -34 0 -34 0 -1 -137 c-2 -144 -7 -163 -46
-163 -42 0 -49 22 -49 165 -1 126 -2 134 -21 137 -12 3 -26 3 -33 0z"/>
<path d="M1791 772 c-19 -9 -48 -34 -65 -55 -41 -51 -49 -143 -17 -204 41 -81
125 -120 205 -93 46 15 102 78 116 131 40 149 -110 288 -239 221z m146 -87
c34 -34 35 -38 31 -92 -4 -48 -10 -61 -37 -85 -70 -62 -180 -8 -181 90 0 70
48 122 113 122 31 0 46 -7 74 -35z"/>
<path d="M2288 783 l-78 -4 0 -29 c0 -29 28 -49 50 -35 6 4 10 -48 12 -142 l3
-148 33 -3 32 -3 0 145 c0 90 4 146 10 147 6 1 15 3 20 4 6 1 15 3 20 4 17 2
12 58 -6 65 -9 3 -16 5 -17 4 -1 -1 -37 -4 -79 -5z"/>
<path d="M2632 605 c-34 -96 -62 -177 -62 -180 0 -3 13 -5 30 -5 25 0 33 6 47
38 18 36 19 37 81 40 l63 3 17 -40 c14 -34 22 -41 46 -41 25 0 28 3 23 28 -2
15 -25 83 -50 152 -70 195 -62 180 -100 180 l-34 0 -61 -175z m121 16 c9 -27
17 -51 17 -55 0 -3 -18 -6 -40 -6 -25 0 -40 5 -40 12 0 18 32 98 39 98 3 0 14
-22 24 -49z"/>
<path d="M4465 766 c-38 -17 -90 -72 -104 -109 -45 -119 54 -257 185 -257 91
0 184 95 184 190 0 70 -59 155 -123 179 -38 15 -106 13 -142 -3z m134 -71 c38
-19 65 -77 57 -124 -8 -51 -63 -101 -112 -101 -86 0 -140 77 -114 163 20 66
102 97 169 62z"/>
<path d="M3258 623 c-3 -165 4 -149 -69 -140 -12 1 -26 -6 -32 -15 -26 -40 64
-83 123 -58 42 17 50 53 50 216 l0 144 -35 0 -34 0 -3 -147z"/>
<path d="M3494 698 c-15 -40 -44 -118 -66 -172 -21 -55 -38 -103 -38 -108 0
-4 15 -8 34 -8 31 0 36 4 47 35 7 19 18 36 24 37 28 4 121 4 132 1 7 -3 17
-20 23 -39 10 -30 16 -34 46 -34 19 0 34 3 34 6 0 6 -55 154 -83 224 -7 19
-22 56 -31 83 -17 45 -19 47 -56 47 l-38 0 -28 -72z m90 -78 c22 -56 21 -60
-24 -60 -22 0 -40 1 -40 3 0 15 34 97 40 97 4 0 15 -18 24 -40z"/>
<path d="M3790 590 l0 -180 85 0 85 0 0 29 c0 28 -2 30 -47 33 l-48 3 -3 148
-3 147 -34 0 -35 0 0 -180z"/>
<path d="M3995 748 c4 -13 32 -94 63 -181 l56 -158 35 3 34 3 58 160 c33 88
62 168 65 178 5 16 1 18 -31 15 l-38 -3 -41 -117 c-22 -65 -44 -118 -47 -118
-5 0 -64 160 -85 228 -2 6 -19 12 -39 12 -33 0 -36 -2 -30 -22z"/>
</g>
</svg>
